<svg version="1.1" id="Layer_1" xmlns="http://www.w3.org/2000/svg" xmlns:xlink="http://www.w3.org/1999/xlink" x="0px" y="0px"
	 width="100%" viewBox="0 0 512 512" enable-background="new 0 0 512 512" xml:space="preserve">
<path fill="#FFFFFF" opacity="1.000000" stroke="none" 
	d="
M341.000000,513.000000 
	C227.360947,513.000000 114.221886,513.000000 1.041413,513.000000 
	C1.041413,342.402588 1.041413,171.805161 1.041413,1.103867 
	C171.555725,1.103867 342.111542,1.103867 512.833679,1.103867 
	C512.833679,171.666534 512.833679,342.333252 512.833679,513.000000 
	C455.805145,513.000000 398.652557,513.000000 341.000000,513.000000 
M290.875183,398.216339 
	C306.929657,398.191223 322.984131,398.166138 339.528015,398.673370 
	C340.341309,397.637054 341.807983,396.630951 341.857544,395.559357 
	C342.102539,390.259125 342.199402,384.928711 341.899384,379.634430 
	C341.682556,375.808472 343.116150,374.935364 346.744049,374.899078 
	C359.813202,374.768402 372.878998,374.280701 385.944885,373.887482 
	C386.805023,373.861603 387.655029,373.497467 388.509735,373.290649 
	C388.539703,372.884918 388.569672,372.479156 388.599640,372.073425 
	C387.183197,371.741394 385.774292,371.167480 384.348816,371.122955 
	C380.203278,370.993469 376.044434,370.930054 371.903564,371.119324 
	C368.280518,371.284973 366.771698,369.906464 366.894806,366.208374 
	C367.104523,359.907867 367.027039,353.597748 367.975037,347.073273 
	C375.316284,347.047241 382.657562,347.021210 390.456085,347.571350 
	C394.149780,348.099243 392.933502,345.201630 392.948181,343.629791 
	C393.060364,331.635620 393.011963,319.639954 393.012085,307.644745 
	C393.012299,287.652740 392.911713,267.659882 393.088562,247.669449 
	C393.127563,243.258759 391.594513,241.701965 387.266479,241.962784 
	C382.618591,242.242859 377.940704,242.027954 373.275909,242.024307 
	C366.918396,242.019363 366.919128,242.017426 366.912933,235.419174 
	C366.909180,231.420822 367.026184,227.417450 366.863281,223.425522 
	C366.695007,219.301117 365.305237,216.502426 360.215363,216.931641 
	C355.418152,217.336151 350.556488,216.907822 345.729797,217.058090 
	C342.938599,217.144974 341.839813,216.141861 341.937347,213.309723 
	C342.092102,208.816895 341.975769,204.314758 341.975159,199.816559 
	C341.973969,190.999893 341.974274,190.998718 333.413147,190.998413 
	C312.921356,190.997665 292.429535,190.998154 271.937744,190.998154 
	C270.161194,190.998154 268.384674,190.998154 266.012238,190.998154 
	C266.012238,188.576584 266.012238,186.788345 266.012207,185.000122 
	C266.011993,171.672119 265.943176,158.343567 266.051331,145.016434 
	C266.085724,140.773880 264.346802,139.008972 260.084137,139.039551 
	C245.090912,139.147110 230.095596,139.170898 215.102966,139.027313 
	C210.527649,138.983505 208.910614,140.913223 208.956528,145.335388 
	C209.094864,158.661957 209.016403,171.990891 208.993622,185.318863 
	C208.990616,187.079727 208.819992,188.840286 208.726868,190.603546 
	C201.602829,190.603546 195.043411,190.603546 188.029831,190.603546 
	C188.029831,188.416702 188.029846,186.613373 188.029831,184.810043 
	C188.029785,171.815247 188.040573,158.820419 188.025024,145.825638 
	C188.017502,139.531662 187.580948,139.096542 181.139587,139.086624 
	C167.811615,139.066116 154.483582,139.070709 141.155594,139.084244 
	C133.829041,139.091690 133.032608,139.874634 133.031906,146.970749 
	C133.027771,188.620743 133.026978,230.270752 133.026825,271.920746 
	C133.026718,303.074951 133.028061,334.229126 133.031464,365.383331 
	C133.032379,373.814392 133.163956,373.938477 141.821182,373.941284 
	C145.319778,373.942444 148.847000,374.223450 152.309921,373.871948 
	C156.895386,373.406494 158.442688,374.996796 158.205963,379.670227 
	C157.939041,384.940033 158.418716,390.269165 158.938507,395.536469 
	C159.027695,396.440186 160.939560,397.164001 162.944580,398.044373 
	C178.642593,398.076599 194.340622,398.108826 210.528076,398.673401 
	C211.342606,397.466095 212.801788,396.289185 212.860443,395.046173 
	C213.119064,389.565887 213.311829,384.039490 212.874146,378.582275 
	C212.486359,373.746918 214.403564,372.583954 218.815125,372.881256 
	C223.785629,373.216187 228.813568,372.701324 233.783707,373.039154 
	C237.720993,373.306702 239.281433,371.428894 239.722092,368.013428 
	C239.933701,366.373138 239.902802,364.695923 239.906555,363.035309 
	C239.957031,340.733887 239.994232,318.432495 240.950623,295.940063 
	C255.272522,295.926147 269.594727,295.957764 283.916046,295.858551 
	C286.661835,295.839539 288.203522,296.251160 288.188232,299.592865 
	C288.040955,331.730316 288.028229,363.868439 287.434113,396.347961 
	C286.794464,398.903870 287.638977,399.527313 290.875183,398.216339 
M111.272209,270.939301 
	C110.598145,270.031189 109.924080,269.123077 109.250023,268.214966 
	C108.638550,268.837372 108.027069,269.459778 107.415588,270.082184 
	C108.537102,270.523987 109.658615,270.965790 111.272209,270.939301 
z"/>
<path fill="#393939" opacity="1.000000" stroke="none" 
	d="
M389.998779,346.995178 
	C382.657562,347.021210 375.316284,347.047241 367.102173,347.082214 
	C365.747162,348.520050 364.891876,349.937897 364.849152,351.379822 
	C364.687042,356.851685 364.504913,362.350647 364.878113,367.801971 
	C365.188263,372.331573 363.421539,373.728333 359.159424,373.413361 
	C355.528137,373.144989 351.861237,373.357513 348.210114,373.358032 
	C339.999207,373.359222 340.117188,373.361755 339.958374,381.355164 
	C339.847137,386.954346 339.358643,392.546021 339.038605,398.141052 
	C322.984131,398.166138 306.929657,398.191223 290.308960,397.943420 
	C289.154175,397.115753 288.565582,396.561035 287.976990,396.006348 
	C288.028229,363.868439 288.040955,331.730316 288.188232,299.592865 
	C288.203522,296.251160 286.661835,295.839539 283.916046,295.858551 
	C269.594727,295.957764 255.272522,295.926147 240.056854,295.940918 
	C238.669250,297.706238 237.754013,299.468781 237.745773,301.235535 
	C237.646469,322.512970 237.598694,343.791565 237.747391,365.068420 
	C237.779068,369.602600 236.725784,371.918762 231.584747,371.450958 
	C226.803635,371.015900 221.931427,371.634583 217.136658,371.281921 
	C212.436234,370.936218 210.724655,372.391785 210.868927,377.342377 
	C211.070541,384.261322 210.359283,391.206879 210.038635,398.141052 
	C194.340622,398.108826 178.642593,398.076599 162.450226,397.593262 
	C161.716232,390.516602 161.205887,383.885925 161.331894,377.267334 
	C161.416306,372.833984 159.791840,371.329376 155.492798,371.583313 
	C150.847702,371.857697 146.173798,371.653748 141.512482,371.642548 
	C135.100754,371.627167 134.974640,371.509308 134.950134,365.317566 
	C134.932343,360.822784 134.946609,356.327850 134.946609,351.833008 
	C134.946594,283.910767 134.932693,215.988525 135.022141,148.066406 
	C135.024521,146.258499 136.148590,144.452072 136.810974,143.137161 
	C136.896637,216.413773 136.920731,289.198181 136.946167,361.982574 
	C136.946686,363.481415 136.681473,365.057648 137.065674,366.453064 
	C137.341171,367.453583 138.473419,368.941223 139.260254,368.964447 
	C146.012970,369.163818 152.774063,369.078888 159.884506,369.078888 
	C159.884506,352.233215 159.884506,336.115234 159.923431,319.530334 
	C159.967697,313.022095 160.109344,306.975891 159.893158,300.942474 
	C159.830414,299.190948 158.743378,297.476074 158.136200,295.291962 
	C158.107117,271.528717 158.061295,248.217972 158.032074,224.907181 
	C158.022995,217.667679 158.508606,217.180267 165.625595,217.179642 
	C215.411316,217.175217 265.197052,217.177246 314.982758,217.177032 
	C321.310028,217.177017 327.639557,217.077240 333.963593,217.219772 
	C336.853455,217.284912 338.260681,216.498291 338.131958,213.313416 
	C337.937073,208.492584 337.951416,203.653290 338.128540,198.831070 
	C338.239166,195.819275 337.191711,194.669647 334.117157,194.758926 
	C328.127960,194.932846 322.130127,194.808441 316.135864,194.808182 
	C300.317657,194.807495 284.499451,194.816101 268.681244,194.799789 
	C265.081848,194.796066 262.062286,194.295547 262.117584,189.448944 
	C262.296143,173.800568 262.281921,158.149963 262.780029,142.574020 
	C263.541077,144.379288 264.133820,146.109177 264.144043,147.842499 
	C264.219513,160.669250 264.170135,173.496704 264.178680,186.323929 
	C264.183105,192.994522 264.218353,193.020554 270.867096,193.021820 
	C292.190308,193.025848 313.513916,193.091324 334.836334,192.961288 
	C338.687286,192.937820 340.268646,194.107635 340.064880,198.116653 
	C339.794617,203.433594 340.187012,208.783356 339.941711,214.102737 
	C339.766296,217.906616 340.848206,219.592560 344.970795,219.323975 
	C349.947235,218.999771 354.963348,219.341812 359.957855,219.217255 
	C363.380402,219.131882 364.794373,220.603851 364.710663,223.995529 
	C364.591461,228.823624 364.991302,233.682495 364.594452,238.480667 
	C364.198853,243.263245 366.092529,244.537613 370.567413,244.217331 
	C375.539551,243.861435 380.570190,244.361862 385.550446,244.068024 
	C389.907288,243.810989 391.298462,245.356674 391.274323,249.768143 
	C391.108185,280.086151 391.210297,310.405579 391.135651,340.724304 
	C391.130493,342.815491 390.394775,344.904938 389.998779,346.995178 
M247.500000,220.050201 
	C220.673508,220.050461 193.847031,220.046478 167.020538,220.053909 
	C160.276581,220.055771 160.155441,220.074966 160.292435,226.997406 
	C160.888153,257.100586 161.667999,287.200470 162.161819,317.305176 
	C162.426865,333.463776 162.338181,349.630371 162.204224,365.791687 
	C162.172226,369.652069 163.360138,371.087067 167.354294,371.022217 
	C179.847916,370.819458 192.351089,370.764832 204.841629,371.047089 
	C209.288666,371.147583 210.515732,369.733978 210.476151,365.375610 
	C210.279434,343.716064 210.463516,322.053253 210.315948,300.392914 
	C210.289322,296.486237 211.560669,294.965759 215.477814,295.103607 
	C221.136078,295.302765 226.813721,294.982788 232.469238,295.217712 
	C236.028687,295.365540 237.196289,293.949463 237.091293,290.563477 
	C236.931320,285.403076 237.186279,280.229218 237.003525,275.070343 
	C236.888702,271.829071 238.169907,270.543579 241.352722,270.555450 
	C255.848923,270.609406 270.345490,270.593750 284.841858,270.560242 
	C287.938751,270.553101 289.397949,271.789398 289.296906,275.062103 
	C289.137543,280.222565 289.390167,285.396271 289.209473,290.555328 
	C289.090027,293.965088 290.270660,295.348572 293.811157,295.214630 
	C299.634705,294.994293 305.474762,295.248688 311.303741,295.118896 
	C314.540741,295.046875 315.797852,296.396973 315.725739,299.585571 
	C315.601471,305.081390 315.692780,310.582062 315.692932,316.080719 
	C315.693481,332.576660 315.769775,349.073212 315.639801,365.568115 
	C315.607849,369.623993 316.919220,371.354401 321.174316,371.019409 
	C325.314301,370.693512 329.518402,370.704285 333.660553,371.016296 
	C337.953156,371.339630 339.769104,369.967682 339.460236,365.446777 
	C339.131622,360.637085 339.549652,355.780212 339.332703,350.957825 
	C339.173309,347.414825 340.684082,346.181213 344.033813,346.253510 
	C349.196777,346.364960 354.369720,346.132080 359.527283,346.332520 
	C362.814697,346.460297 363.893555,345.197052 363.885986,341.983002 
	C363.812622,310.824158 363.808472,279.665009 363.894745,248.506241 
	C363.903503,245.356186 362.677460,244.501465 359.753693,244.596100 
	C354.593719,244.763107 349.418243,244.485626 344.261108,244.691589 
	C340.520477,244.840973 339.182190,243.298660 339.344421,239.677780 
	C339.530670,235.520493 339.387512,231.348434 339.386414,227.182785 
	C339.384552,220.054642 339.384216,220.051163 332.479340,220.050812 
	C304.486237,220.049362 276.493103,220.050217 247.500000,220.050201 
M301.510925,296.952942 
	C299.178131,296.954224 296.836670,297.082947 294.514771,296.924500 
	C291.624695,296.727295 290.812500,298.024567 290.818176,300.757599 
	C290.881500,331.250336 290.881744,361.743347 290.818604,392.236084 
	C290.812866,395.000183 291.710815,396.079041 294.556061,396.058258 
	C307.885590,395.960938 321.216400,395.976074 334.546234,396.047943 
	C337.070190,396.061554 338.174500,395.236115 338.113800,392.594238 
	C337.991272,387.265015 337.971588,381.927826 338.125244,376.600128 
	C338.206360,373.787933 337.176300,372.732483 334.364838,372.822571 
	C329.704071,372.971863 325.034973,372.871765 320.369415,372.857849 
	C314.006775,372.838867 313.913116,372.770660 313.908325,366.430878 
	C313.892395,345.269135 313.901947,324.107422 313.901733,302.945679 
	C313.901703,301.160004 313.901764,299.374329 313.901764,296.952820 
	C309.725830,296.952820 306.111908,296.952820 301.510925,296.952942 
M375.530914,344.177246 
	C378.363068,344.177124 381.213470,343.973999 384.022919,344.226440 
	C387.833740,344.568878 389.513672,343.398132 389.198456,339.267395 
	C388.857178,334.795319 389.121399,330.277039 389.121368,325.778931 
	C389.121307,300.789368 389.159210,275.799622 389.033661,250.810699 
	C389.025482,249.181442 387.835327,246.187424 387.071564,246.146774 
	C380.188782,245.780441 373.278412,245.932587 366.380005,245.932587 
	C366.380005,279.065002 366.380005,311.309418 366.380005,344.177704 
	C369.318481,344.177704 371.933136,344.177704 375.530914,344.177246 
M218.624451,296.952942 
	C216.859756,297.043121 215.095062,297.133331 212.887466,297.246155 
	C212.887466,304.878815 212.887375,312.007629 212.887466,319.136475 
	C212.887650,334.285553 212.819412,349.435425 212.994751,364.582489 
	C213.012161,366.087646 214.447327,368.824371 215.339127,368.872711 
	C222.067719,369.237091 228.825012,369.071594 235.514374,369.071594 
	C235.514374,344.598022 235.514374,320.922821 235.514374,296.952820 
	C229.894287,296.952820 224.743652,296.952820 218.624451,296.952942 
M209.082962,381.542206 
	C209.081955,379.876923 208.969788,378.202576 209.104614,376.548370 
	C209.337509,373.690765 208.054504,372.800873 205.300735,372.821594 
	C192.645340,372.916809 179.988632,372.905914 167.332947,372.834473 
	C164.756683,372.819946 163.759735,373.793365 163.814285,376.364136 
	C163.923798,381.524139 164.008499,386.695251 163.785126,391.847961 
	C163.639420,395.209290 164.980270,396.128113 168.157227,396.073456 
	C177.313538,395.915863 186.474304,396.018616 195.633331,396.018707 
	C209.082245,396.018860 209.082245,396.018707 209.082962,381.542206 
M245.607941,272.064453 
	C243.527267,272.064453 241.446579,272.064453 239.436981,272.064453 
	C239.436981,279.510803 239.436981,286.089630 239.436981,292.748535 
	C255.383774,292.748535 270.938385,292.748535 286.715515,292.748535 
	C286.715515,285.795441 286.715515,279.226074 286.715515,272.064575 
	C273.141815,272.064575 259.863129,272.064575 245.607941,272.064453 
M354.454712,347.993378 
	C350.382080,347.993378 346.309479,347.993378 341.898102,347.993378 
	C341.898102,355.330750 341.813263,361.795502 341.991089,368.252991 
	C342.017273,369.202576 343.262878,370.900909 343.990051,370.925995 
	C350.206818,371.140594 356.434204,371.049011 362.625183,371.049011 
	C362.625183,362.954559 362.625183,355.728271 362.625183,347.993378 
	C360.008514,347.993378 357.718903,347.993378 354.454712,347.993378 
z"/>
<path fill="#D9D9D9" opacity="1.000000" stroke="none" 
	d="
M390.227417,347.283264 
	C390.394775,344.904938 391.130493,342.815491 391.135651,340.724304 
	C391.210297,310.405579 391.108185,280.086151 391.274323,249.768143 
	C391.298462,245.356674 389.907288,243.810989 385.550446,244.068024 
	C380.570190,244.361862 375.539551,243.861435 370.567413,244.217331 
	C366.092529,244.537613 364.198853,243.263245 364.594452,238.480667 
	C364.991302,233.682495 364.591461,228.823624 364.710663,223.995529 
	C364.794373,220.603851 363.380402,219.131882 359.957855,219.217255 
	C354.963348,219.341812 349.947235,218.999771 344.970795,219.323975 
	C340.848206,219.592560 339.766296,217.906616 339.941711,214.102737 
	C340.187012,208.783356 339.794617,203.433594 340.064880,198.116653 
	C340.268646,194.107635 338.687286,192.937820 334.836334,192.961288 
	C313.513916,193.091324 292.190308,193.025848 270.867096,193.021820 
	C264.218353,193.020554 264.183105,192.994522 264.178680,186.323929 
	C264.170135,173.496704 264.219513,160.669250 264.144043,147.842499 
	C264.133820,146.109177 263.541077,144.379288 262.375427,142.430237 
	C245.239685,142.324570 228.946609,142.436508 212.214630,142.606262 
	C211.434296,144.372849 210.807388,146.079849 210.796768,147.790665 
	C210.714355,161.042801 210.668030,174.296494 210.801956,187.547775 
	C210.841415,191.452133 209.783417,193.403839 205.437714,193.096466 
	C200.822372,192.770004 196.144531,193.283447 191.537567,192.902634 
	C189.519913,192.735825 187.610504,191.259216 185.724640,189.957840 
	C185.809982,175.205338 185.813141,160.872360 185.844986,146.539444 
	C185.850037,144.263855 185.955780,142.102600 182.671112,142.144897 
	C167.364319,142.342026 152.056824,142.483551 136.749573,142.644958 
	C136.148590,144.452072 135.024521,146.258499 135.022141,148.066406 
	C134.932693,215.988525 134.946594,283.910767 134.946609,351.833008 
	C134.946609,356.327850 134.932343,360.822784 134.950134,365.317566 
	C134.974640,371.509308 135.100754,371.627167 141.512482,371.642548 
	C146.173798,371.653748 150.847702,371.857697 155.492798,371.583313 
	C159.791840,371.329376 161.416306,372.833984 161.331894,377.267334 
	C161.205887,383.885925 161.716232,390.516602 161.982651,397.556519 
	C160.939560,397.164001 159.027695,396.440186 158.938507,395.536469 
	C158.418716,390.269165 157.939041,384.940033 158.205963,379.670227 
	C158.442688,374.996796 156.895386,373.406494 152.309921,373.871948 
	C148.847000,374.223450 145.319778,373.942444 141.821182,373.941284 
	C133.163956,373.938477 133.032379,373.814392 133.031464,365.383331 
	C133.028061,334.229126 133.026718,303.074951 133.026825,271.920746 
	C133.026978,230.270752 133.027771,188.620743 133.031906,146.970749 
	C133.032608,139.874634 133.829041,139.091690 141.155594,139.084244 
	C154.483582,139.070709 167.811615,139.066116 181.139587,139.086624 
	C187.580948,139.096542 188.017502,139.531662 188.025024,145.825638 
	C188.040573,158.820419 188.029785,171.815247 188.029831,184.810043 
	C188.029846,186.613373 188.029831,188.416702 188.029831,190.603546 
	C195.043411,190.603546 201.602829,190.603546 208.726868,190.603546 
	C208.819992,188.840286 208.990616,187.079727 208.993622,185.318863 
	C209.016403,171.990891 209.094864,158.661957 208.956528,145.335388 
	C208.910614,140.913223 210.527649,138.983505 215.102966,139.027313 
	C230.095596,139.170898 245.090912,139.147110 260.084137,139.039551 
	C264.346802,139.008972 266.085724,140.773880 266.051331,145.016434 
	C265.943176,158.343567 266.011993,171.672119 266.012207,185.000122 
	C266.012238,186.788345 266.012238,188.576584 266.012238,190.998154 
	C268.384674,190.998154 270.161194,190.998154 271.937744,190.998154 
	C292.429535,190.998154 312.921356,190.997665 333.413147,190.998413 
	C341.974274,190.998718 341.973969,190.999893 341.975159,199.816559 
	C341.975769,204.314758 342.092102,208.816895 341.937347,213.309723 
	C341.839813,216.141861 342.938599,217.144974 345.729797,217.058090 
	C350.556488,216.907822 355.418152,217.336151 360.215363,216.931641 
	C365.305237,216.502426 366.695007,219.301117 366.863281,223.425522 
	C367.026184,227.417450 366.909180,231.420822 366.912933,235.419174 
	C366.919128,242.017426 366.918396,242.019363 373.275909,242.024307 
	C377.940704,242.027954 382.618591,242.242859 387.266479,241.962784 
	C391.594513,241.701965 393.127563,243.258759 393.088562,247.669449 
	C392.911713,267.659882 393.012299,287.652740 393.012085,307.644745 
	C393.011963,319.639954 393.060364,331.635620 392.948181,343.629791 
	C392.933502,345.201630 394.149780,348.099243 390.227417,347.283264 
z"/>
<path fill="#D9D9D9" opacity="1.000000" stroke="none" 
	d="
M210.283356,398.407227 
	C210.359283,391.206879 211.070541,384.261322 210.868927,377.342377 
	C210.724655,372.391785 212.436234,370.936218 217.136658,371.281921 
	C221.931427,371.634583 226.803635,371.015900 231.584747,371.450958 
	C236.725784,371.918762 237.779068,369.602600 237.747391,365.068420 
	C237.598694,343.791565 237.646469,322.512970 237.745773,301.235535 
	C237.754013,299.468781 238.669250,297.706238 239.598892,296.036407 
	C239.994232,318.432495 239.957031,340.733887 239.906555,363.035309 
	C239.902802,364.695923 239.933701,366.373138 239.722092,368.013428 
	C239.281433,371.428894 237.720993,373.306702 233.783707,373.039154 
	C228.813568,372.701324 223.785629,373.216187 218.815125,372.881256 
	C214.403564,372.583954 212.486359,373.746918 212.874146,378.582275 
	C213.311829,384.039490 213.119064,389.565887 212.860443,395.046173 
	C212.801788,396.289185 211.342606,397.466095 210.283356,398.407227 
z"/>
<path fill="#D9D9D9" opacity="1.000000" stroke="none" 
	d="
M339.283325,398.407227 
	C339.358643,392.546021 339.847137,386.954346 339.958374,381.355164 
	C340.117188,373.361755 339.999207,373.359222 348.210114,373.358032 
	C351.861237,373.357513 355.528137,373.144989 359.159424,373.413361 
	C363.421539,373.728333 365.188263,372.331573 364.878113,367.801971 
	C364.504913,362.350647 364.687042,356.851685 364.849152,351.379822 
	C364.891876,349.937897 365.747162,348.520050 366.649780,347.191406 
	C367.027039,353.597748 367.104523,359.907867 366.894806,366.208374 
	C366.771698,369.906464 368.280518,371.284973 371.903564,371.119324 
	C376.044434,370.930054 380.203278,370.993469 384.348816,371.122955 
	C385.774292,371.167480 387.183197,371.741394 388.599640,372.073425 
	C388.569672,372.479156 388.539703,372.884918 388.509735,373.290649 
	C387.655029,373.497467 386.805023,373.861603 385.944885,373.887482 
	C372.878998,374.280701 359.813202,374.768402 346.744049,374.899078 
	C343.116150,374.935364 341.682556,375.808472 341.899384,379.634430 
	C342.199402,384.928711 342.102539,390.259125 341.857544,395.559357 
	C341.807983,396.630951 340.341309,397.637054 339.283325,398.407227 
z"/>
<path fill="#D9D9D9" opacity="1.000000" stroke="none" 
	d="
M111.026169,271.173462 
	C109.658615,270.965790 108.537102,270.523987 107.415588,270.082184 
	C108.027069,269.459778 108.638550,268.837372 109.250015,268.214966 
	C109.924080,269.123077 110.598145,270.031189 111.026169,271.173462 
z"/>
<path fill="#D9D9D9" opacity="1.000000" stroke="none" 
	d="
M287.705566,396.177155 
	C288.565582,396.561035 289.154175,397.115753 289.836975,397.968079 
	C287.638977,399.527313 286.794464,398.903870 287.705566,396.177155 
z"/>
<path fill="#FAFAFA" opacity="1.000000" stroke="none" 
	d="
M248.000000,220.050217 
	C276.493103,220.050217 304.486237,220.049362 332.479340,220.050812 
	C339.384216,220.051163 339.384552,220.054642 339.386414,227.182785 
	C339.387512,231.348434 339.530670,235.520493 339.344421,239.677780 
	C339.182190,243.298660 340.520477,244.840973 344.261108,244.691589 
	C349.418243,244.485626 354.593719,244.763107 359.753693,244.596100 
	C362.677460,244.501465 363.903503,245.356186 363.894745,248.506241 
	C363.808472,279.665009 363.812622,310.824158 363.885986,341.983002 
	C363.893555,345.197052 362.814697,346.460297 359.527283,346.332520 
	C354.369720,346.132080 349.196777,346.364960 344.033813,346.253510 
	C340.684082,346.181213 339.173309,347.414825 339.332703,350.957825 
	C339.549652,355.780212 339.131622,360.637085 339.460236,365.446777 
	C339.769104,369.967682 337.953156,371.339630 333.660553,371.016296 
	C329.518402,370.704285 325.314301,370.693512 321.174316,371.019409 
	C316.919220,371.354401 315.607849,369.623993 315.639801,365.568115 
	C315.769775,349.073212 315.693481,332.576660 315.692932,316.080719 
	C315.692780,310.582062 315.601471,305.081390 315.725739,299.585571 
	C315.797852,296.396973 314.540741,295.046875 311.303741,295.118896 
	C305.474762,295.248688 299.634705,294.994293 293.811157,295.214630 
	C290.270660,295.348572 289.090027,293.965088 289.209473,290.555328 
	C289.390167,285.396271 289.137543,280.222565 289.296906,275.062103 
	C289.397949,271.789398 287.938751,270.553101 284.841858,270.560242 
	C270.345490,270.593750 255.848923,270.609406 241.352722,270.555450 
	C238.169907,270.543579 236.888702,271.829071 237.003525,275.070343 
	C237.186279,280.229218 236.931320,285.403076 237.091293,290.563477 
	C237.196289,293.949463 236.028687,295.365540 232.469238,295.217712 
	C226.813721,294.982788 221.136078,295.302765 215.477814,295.103607 
	C211.560669,294.965759 210.289322,296.486237 210.315948,300.392914 
	C210.463516,322.053253 210.279434,343.716064 210.476151,365.375610 
	C210.515732,369.733978 209.288666,371.147583 204.841629,371.047089 
	C192.351089,370.764832 179.847916,370.819458 167.354294,371.022217 
	C163.360138,371.087067 162.172226,369.652069 162.204224,365.791687 
	C162.338181,349.630371 162.426865,333.463776 162.161819,317.305176 
	C161.667999,287.200470 160.888153,257.100586 160.292435,226.997406 
	C160.155441,220.074966 160.276581,220.055771 167.020538,220.053909 
	C193.847031,220.046478 220.673508,220.050461 248.000000,220.050217 
M185.034805,248.763901 
	C185.031845,254.916595 185.147751,261.072571 184.979416,267.220703 
	C184.884903,270.672668 186.256210,272.014679 189.668839,271.936920 
	C195.652145,271.800568 201.641953,271.826843 207.626678,271.926819 
	C210.804749,271.979919 212.143295,270.632355 212.099747,267.458771 
	C212.008514,260.808502 212.014938,254.155273 212.104340,247.504913 
	C212.147171,244.319672 210.709229,242.966721 207.596466,242.993698 
	C201.610535,243.045593 195.622467,243.083710 189.637985,242.976288 
	C186.176346,242.914169 184.753311,244.494263 185.034805,248.763901 
z"/>
<path fill="#000000" opacity="1.000000" stroke="none" 
	d="
M136.810974,143.137161 
	C152.056824,142.483551 167.364319,142.342026 182.671112,142.144897 
	C185.955780,142.102600 185.850037,144.263855 185.844986,146.539444 
	C185.813141,160.872360 185.809982,175.205338 185.506058,190.345978 
	C186.289490,192.270035 187.322083,194.301468 188.445816,194.353210 
	C195.378113,194.672424 202.342941,194.759857 209.266144,194.373047 
	C210.543320,194.301682 212.707748,191.723022 212.723572,190.282516 
	C212.898392,174.373337 212.729416,158.460388 212.653519,142.548447 
	C228.946609,142.436508 245.239685,142.324570 261.937408,142.356445 
	C262.281921,158.149963 262.296143,173.800568 262.117584,189.448944 
	C262.062286,194.295547 265.081848,194.796066 268.681244,194.799789 
	C284.499451,194.816101 300.317657,194.807495 316.135864,194.808182 
	C322.130127,194.808441 328.127960,194.932846 334.117157,194.758926 
	C337.191711,194.669647 338.239166,195.819275 338.128540,198.831070 
	C337.951416,203.653290 337.937073,208.492584 338.131958,213.313416 
	C338.260681,216.498291 336.853455,217.284912 333.963593,217.219772 
	C327.639557,217.077240 321.310028,217.177017 314.982758,217.177032 
	C265.197052,217.177246 215.411316,217.175217 165.625595,217.179642 
	C158.508606,217.180267 158.022995,217.667679 158.032074,224.907181 
	C158.061295,248.217972 158.107117,271.528717 158.052673,295.732239 
	C157.684479,303.374207 157.288406,310.123016 157.264221,316.873108 
	C157.260513,317.911346 158.968262,318.955719 159.884506,319.997253 
	C159.884506,336.115234 159.884506,352.233215 159.884506,369.078888 
	C152.774063,369.078888 146.012970,369.163818 139.260254,368.964447 
	C138.473419,368.941223 137.341171,367.453583 137.065674,366.453064 
	C136.681473,365.057648 136.946686,363.481415 136.946167,361.982574 
	C136.920731,289.198181 136.896637,216.413773 136.810974,143.137161 
z"/>
<path fill="#000000" opacity="1.000000" stroke="none" 
	d="
M302.004456,296.952881 
	C306.111908,296.952820 309.725830,296.952820 313.901764,296.952820 
	C313.901764,299.374329 313.901703,301.160004 313.901733,302.945679 
	C313.901947,324.107422 313.892395,345.269135 313.908325,366.430878 
	C313.913116,372.770660 314.006775,372.838867 320.369415,372.857849 
	C325.034973,372.871765 329.704071,372.971863 334.364838,372.822571 
	C337.176300,372.732483 338.206360,373.787933 338.125244,376.600128 
	C337.971588,381.927826 337.991272,387.265015 338.113800,392.594238 
	C338.174500,395.236115 337.070190,396.061554 334.546234,396.047943 
	C321.216400,395.976074 307.885590,395.960938 294.556061,396.058258 
	C291.710815,396.079041 290.812866,395.000183 290.818604,392.236084 
	C290.881744,361.743347 290.881500,331.250336 290.818176,300.757599 
	C290.812500,298.024567 291.624695,296.727295 294.514771,296.924500 
	C296.836670,297.082947 299.178131,296.954224 302.004456,296.952881 
z"/>
<path fill="#000000" opacity="1.000000" stroke="none" 
	d="
M375.039337,344.177490 
	C371.933136,344.177704 369.318481,344.177704 366.380005,344.177704 
	C366.380005,311.309418 366.380005,279.065002 366.380005,245.932587 
	C373.278412,245.932587 380.188782,245.780441 387.071564,246.146774 
	C387.835327,246.187424 389.025482,249.181442 389.033661,250.810699 
	C389.159210,275.799622 389.121307,300.789368 389.121368,325.778931 
	C389.121399,330.277039 388.857178,334.795319 389.198456,339.267395 
	C389.513672,343.398132 387.833740,344.568878 384.022919,344.226440 
	C381.213470,343.973999 378.363068,344.177124 375.039337,344.177490 
z"/>
<path fill="#000000" opacity="1.000000" stroke="none" 
	d="
M219.108734,296.952881 
	C224.743652,296.952820 229.894287,296.952820 235.514374,296.952820 
	C235.514374,320.922821 235.514374,344.598022 235.514374,369.071594 
	C228.825012,369.071594 222.067719,369.237091 215.339127,368.872711 
	C214.447327,368.824371 213.012161,366.087646 212.994751,364.582489 
	C212.819412,349.435425 212.887650,334.285553 212.887466,319.136475 
	C212.887375,312.007629 212.887466,304.878815 212.887466,297.246155 
	C215.095062,297.133331 216.859756,297.043121 219.108734,296.952881 
z"/>
<path fill="#000000" opacity="1.000000" stroke="none" 
	d="
M209.083038,382.035339 
	C209.082245,396.018707 209.082245,396.018860 195.633331,396.018707 
	C186.474304,396.018616 177.313538,395.915863 168.157227,396.073456 
	C164.980270,396.128113 163.639420,395.209290 163.785126,391.847961 
	C164.008499,386.695251 163.923798,381.524139 163.814285,376.364136 
	C163.759735,373.793365 164.756683,372.819946 167.332947,372.834473 
	C179.988632,372.905914 192.645340,372.916809 205.300735,372.821594 
	C208.054504,372.800873 209.337509,373.690765 209.104614,376.548370 
	C208.969788,378.202576 209.081955,379.876923 209.083038,382.035339 
z"/>
<path fill="#000000" opacity="1.000000" stroke="none" 
	d="
M246.096207,272.064514 
	C259.863129,272.064575 273.141815,272.064575 286.715515,272.064575 
	C286.715515,279.226074 286.715515,285.795441 286.715515,292.748535 
	C270.938385,292.748535 255.383774,292.748535 239.436981,292.748535 
	C239.436981,286.089630 239.436981,279.510803 239.436981,272.064453 
	C241.446579,272.064453 243.527267,272.064453 246.096207,272.064514 
z"/>
<path fill="#000000" opacity="1.000000" stroke="none" 
	d="
M354.941986,347.993378 
	C357.718903,347.993378 360.008514,347.993378 362.625183,347.993378 
	C362.625183,355.728271 362.625183,362.954559 362.625183,371.049011 
	C356.434204,371.049011 350.206818,371.140594 343.990051,370.925995 
	C343.262878,370.900909 342.017273,369.202576 341.991089,368.252991 
	C341.813263,361.795502 341.898102,355.330750 341.898102,347.993378 
	C346.309479,347.993378 350.382080,347.993378 354.941986,347.993378 
z"/>
<path fill="#020202" opacity="1.000000" stroke="none" 
	d="
M159.923431,319.530334 
	C158.968262,318.955719 157.260513,317.911346 157.264221,316.873108 
	C157.288406,310.123016 157.684479,303.374207 158.042358,296.184692 
	C158.743378,297.476074 159.830414,299.190948 159.893158,300.942474 
	C160.109344,306.975891 159.967697,313.022095 159.923431,319.530334 
z"/>
<path fill="#393939" opacity="1.000000" stroke="none" 
	d="
M212.214630,142.606262 
	C212.729416,158.460388 212.898392,174.373337 212.723572,190.282516 
	C212.707748,191.723022 210.543320,194.301682 209.266144,194.373047 
	C202.342941,194.759857 195.378113,194.672424 188.445816,194.353210 
	C187.322083,194.301468 186.289490,192.270035 185.433350,190.765533 
	C187.610504,191.259216 189.519913,192.735825 191.537567,192.902634 
	C196.144531,193.283447 200.822372,192.770004 205.437714,193.096466 
	C209.783417,193.403839 210.841415,191.452133 210.801956,187.547775 
	C210.668030,174.296494 210.714355,161.042801 210.796768,147.790665 
	C210.807388,146.079849 211.434296,144.372849 212.214630,142.606262 
z"/>
<path fill="#A3A3A3" opacity="1.000000" stroke="none" 
	d="
M185.035553,248.299408 
	C184.753311,244.494263 186.176346,242.914169 189.637985,242.976288 
	C195.622467,243.083710 201.610535,243.045593 207.596466,242.993698 
	C210.709229,242.966721 212.147171,244.319672 212.104340,247.504913 
	C212.014938,254.155273 212.008514,260.808502 212.099747,267.458771 
	C212.143295,270.632355 210.804749,271.979919 207.626678,271.926819 
	C201.641953,271.826843 195.652145,271.800568 189.668839,271.936920 
	C186.256210,272.014679 184.884903,270.672668 184.979416,267.220703 
	C185.147751,261.072571 185.031845,254.916595 185.035553,248.299408 
M190.741119,244.801239 
	C187.988815,244.533157 186.811646,245.745148 186.857880,248.538528 
	C186.954208,254.358337 186.956512,260.181915 186.862335,266.001740 
	C186.815155,268.917664 187.906082,270.286865 190.953995,270.213470 
	C195.940872,270.093414 200.934402,270.105011 205.921921,270.211273 
	C208.781372,270.272217 210.267715,269.322327 210.212814,266.219910 
	C210.106873,260.234131 210.110428,254.243591 210.224579,248.257996 
	C210.274384,245.646576 209.214432,244.716827 206.674286,244.771423 
	C201.686844,244.878647 196.695435,244.800323 190.741119,244.801239 
z"/>
<path fill="#0A0A0A" opacity="1.000000" stroke="none" 
	d="
M191.223389,244.800003 
	C196.695435,244.800323 201.686844,244.878647 206.674286,244.771423 
	C209.214432,244.716827 210.274384,245.646576 210.224579,248.257996 
	C210.110428,254.243591 210.106873,260.234131 210.212814,266.219910 
	C210.267715,269.322327 208.781372,270.272217 205.921921,270.211273 
	C200.934402,270.105011 195.940872,270.093414 190.953995,270.213470 
	C187.906082,270.286865 186.815155,268.917664 186.862335,266.001740 
	C186.956512,260.181915 186.954208,254.358337 186.857880,248.538528 
	C186.811646,245.745148 187.988815,244.533157 191.223389,244.800003 
z"/>
</svg>